<svg width="51" height="51" viewBox="0 0 51 51" fill="none" xmlns="http://www.w3.org/2000/svg">
<path d="M40.8 6.8H10.2C8.32149 6.8 6.79999 8.3215 6.79999 10.2V40.8C6.79999 42.6785 8.32149 44.2 10.2 44.2H40.8C42.6785 44.2 44.2 42.6785 44.2 40.8V10.2C44.2 8.3215 42.6785 6.8 40.8 6.8ZM18.6218 37.4H13.6068V21.2636H18.6218V37.4ZM16.0633 18.9567C14.4466 18.9567 13.1393 17.646 13.1393 16.0327C13.1393 14.4194 14.4483 13.1104 16.0633 13.1104C17.6749 13.1104 18.9856 14.4211 18.9856 16.0327C18.9856 17.646 17.6749 18.9567 16.0633 18.9567ZM37.4068 37.4H32.3952V29.5528C32.3952 27.6811 32.3612 25.2739 29.7891 25.2739C27.1796 25.2739 26.7784 27.3122 26.7784 29.4168V37.4H21.7668V21.2636H26.5778V23.4685H26.6458C27.3156 22.2003 28.951 20.8624 31.3905 20.8624C36.4684 20.8624 37.4068 24.2046 37.4068 28.5498V37.4Z" fill="white"/>
</svg>
