<svg width="45" height="45" viewBox="0 0 45 45" fill="none" xmlns="http://www.w3.org/2000/svg">
    <path
        d="M20.4375 3.9375C11.8125 4.875 4.87499 11.8125 3.93749 20.25C2.99999 29.0625 8.06249 36.9375 15.75 39.9375C16.3125 40.125 16.875 39.75 16.875 39V36C16.875 36 16.125 36.1875 15.1875 36.1875C12.5625 36.1875 11.4375 33.9375 11.25 32.625C11.0625 31.875 10.6875 31.3125 10.125 30.75C9.56249 30.5625 9.37499 30.5625 9.37499 30.375C9.37499 30 9.93749 30 10.125 30C11.25 30 12.1875 31.3125 12.5625 31.875C13.5 33.375 14.625 33.75 15.1875 33.75C15.9375 33.75 16.5 33.5625 16.875 33.375C17.0625 32.0625 17.625 30.75 18.75 30C14.4375 29.0625 11.25 26.625 11.25 22.5C11.25 20.4375 12.1875 18.375 13.5 16.875C13.3125 16.5 13.125 15.5625 13.125 14.25C13.125 13.5 13.125 12.375 13.6875 11.25C13.6875 11.25 16.3125 11.25 18.9375 13.6875C19.875 13.3125 21.1875 13.125 22.5 13.125C23.8125 13.125 25.125 13.3125 26.25 13.6875C28.6875 11.25 31.5 11.25 31.5 11.25C31.875 12.375 31.875 13.5 31.875 14.25C31.875 15.75 31.6875 16.5 31.5 16.875C32.8125 18.375 33.75 20.25 33.75 22.5C33.75 26.625 30.5625 29.0625 26.25 30C27.375 30.9375 28.125 32.625 28.125 34.3125V39.1875C28.125 39.75 28.6875 40.3125 29.4375 40.125C36.375 37.3125 41.25 30.5625 41.25 22.6875C41.25 11.4375 31.6875 2.625 20.4375 3.9375Z"
        fill="white" />
</svg>