<svg width="169" height="169" viewBox="0 0 169 169" fill="none" xmlns="http://www.w3.org/2000/svg">
<g clip-path="url(#clip0)">
<path d="M84.5 15.2311C107.061 15.2311 109.737 15.3156 118.652 15.724C141.552 16.7662 152.248 27.6315 153.29 50.362C153.698 59.2697 153.776 61.9455 153.776 84.507C153.776 107.076 153.691 109.744 153.29 118.652C152.241 141.361 141.573 152.248 118.652 153.29C109.737 153.698 107.076 153.783 84.5 153.783C61.9385 153.783 59.2627 153.698 50.355 153.29C27.3991 152.241 16.7592 141.326 15.717 118.645C15.3086 109.737 15.2241 107.069 15.2241 84.5C15.2241 61.9385 15.3156 59.2697 15.717 50.355C16.7662 27.6315 27.4343 16.7592 50.355 15.717C59.2697 15.3156 61.9385 15.2311 84.5 15.2311V15.2311ZM84.5 0C61.5512 0 58.6782 0.0985833 49.6649 0.507C18.9773 1.91533 1.92237 18.9421 0.514042 49.6578C0.0985833 58.6782 0 61.5512 0 84.5C0 107.449 0.0985833 110.329 0.507 119.342C1.91533 150.03 18.9421 167.085 49.6578 168.493C58.6782 168.901 61.5512 169 84.5 169C107.449 169 110.329 168.901 119.342 168.493C150.002 167.085 167.099 150.058 168.486 119.342C168.901 110.329 169 107.449 169 84.5C169 61.5512 168.901 58.6782 168.493 49.6649C167.113 19.0055 150.065 1.92237 119.349 0.514042C110.329 0.0985833 107.449 0 84.5 0V0ZM84.5 41.1092C60.5372 41.1092 41.1092 60.5372 41.1092 84.5C41.1092 108.463 60.5372 127.898 84.5 127.898C108.463 127.898 127.891 108.47 127.891 84.5C127.891 60.5372 108.463 41.1092 84.5 41.1092ZM84.5 112.667C68.945 112.667 56.3333 100.062 56.3333 84.5C56.3333 68.945 68.945 56.3333 84.5 56.3333C100.055 56.3333 112.667 68.945 112.667 84.5C112.667 100.062 100.055 112.667 84.5 112.667ZM129.609 29.2581C124.004 29.2581 119.462 33.8 119.462 39.3981C119.462 44.9962 124.004 49.5381 129.609 49.5381C135.207 49.5381 139.742 44.9962 139.742 39.3981C139.742 33.8 135.207 29.2581 129.609 29.2581Z" fill="white"/>
</g>
<defs>
<clipPath id="clip0">
<rect width="169" height="169" fill="white"/>
</clipPath>
</defs>
</svg>
