<svg width="43" height="42" viewBox="0 0 43 42" fill="none" xmlns="http://www.w3.org/2000/svg">
<path d="M40.1333 9.7118C38.7616 10.3068 37.2882 10.7072 35.7416 10.8878C37.3211 9.9638 38.5323 8.5008 39.1028 6.7564C37.6264 7.6118 35.9896 8.2334 34.2466 8.5694C32.852 7.1176 30.8654 6.2104 28.6667 6.2104C24.4441 6.2104 21.0213 9.555 21.0213 13.678C21.0213 14.2632 21.0901 14.8344 21.2191 15.379C14.8651 15.0682 9.2321 12.0946 5.45957 7.5754C4.8031 8.6786 4.42613 9.961 4.42613 11.3316C4.42613 13.9216 5.7749 16.2078 7.826 17.5462C6.57327 17.507 5.39363 17.171 4.36307 16.6124C4.36307 16.6446 4.36307 16.674 4.36307 16.7062C4.36307 20.3252 6.99753 23.3436 10.4963 24.0282C9.8556 24.199 9.17907 24.29 8.48103 24.29C7.9894 24.29 7.50923 24.2424 7.0434 24.157C8.01663 27.1236 10.8403 29.2838 14.1857 29.344C11.5699 31.3474 8.2732 32.5416 4.68987 32.5416C4.07353 32.5416 3.46437 32.5066 2.86523 32.4366C6.24933 34.5548 10.267 35.791 14.5856 35.791C28.6495 35.791 36.3379 24.4118 36.3379 14.5432C36.3379 14.2198 36.3307 13.8978 36.3164 13.5772C37.8113 12.523 39.1085 11.2084 40.1333 9.7118Z" fill="white"/>
</svg>
